<?xml version="1.0" encoding="iso-8859-1"?>
<!-- Generator: Adobe Illustrator 19.0.0, SVG Export Plug-In . SVG Version: 6.00 Build 0)  -->
<svg version="1.1" id="Capa_1" xmlns="http://www.w3.org/2000/svg" xmlns:xlink="http://www.w3.org/1999/xlink" x="0px" y="0px"
	 viewBox="0 0 512 512" style="enable-background:new 0 0 512 512;" xml:space="preserve">
<g>
	<g>
		<path d="M96,426.667c5.888,0,10.667-4.779,10.667-10.667V10.667C106.667,4.779,101.888,0,96,0H10.667C4.779,0,0,4.779,0,10.667
			v490.667C0,507.221,4.779,512,10.667,512H96c5.888,0,10.667-4.779,10.667-10.667c0-5.888-4.779-10.667-10.667-10.667H21.333
			V21.333h64V416C85.333,421.888,90.112,426.667,96,426.667z"/>
	</g>
</g>
<g>
	<g>
		<path d="M501.333,405.333H96c-5.888,0-10.667,4.779-10.667,10.667c0,5.888,4.779,10.667,10.667,10.667h394.667v64H96
			c-5.888,0-10.667,4.779-10.667,10.667C85.333,507.221,90.112,512,96,512h405.333c5.888,0,10.667-4.779,10.667-10.667V416
			C512,410.112,507.221,405.333,501.333,405.333z"/>
	</g>
</g>
<g>
	<g>
		<path d="M96,64H74.667C68.779,64,64,68.779,64,74.667s4.779,10.667,10.667,10.667h10.667V128H74.667
			C68.779,128,64,132.779,64,138.667s4.779,10.667,10.667,10.667h10.667V192h-32c-5.888,0-10.667,4.779-10.667,10.667
			s4.779,10.667,10.667,10.667h32V256H74.667C68.779,256,64,260.779,64,266.667s4.779,10.667,10.667,10.667h10.667V320H74.667
			C68.779,320,64,324.779,64,330.667s4.779,10.667,10.667,10.667h10.667V384h-32c-5.888,0-10.667,4.779-10.667,10.667
			s4.779,10.667,10.667,10.667H96c5.888,0,10.667-4.779,10.667-10.667v-320C106.667,68.779,101.888,64,96,64z"/>
	</g>
</g>
<g>
	<g>
		<path d="M437.333,405.333h-320c-5.888,0-10.667,4.779-10.667,10.667v42.667c0,5.888,4.779,10.667,10.667,10.667
			S128,464.555,128,458.667v-32h42.667v10.667c0,5.888,4.779,10.667,10.667,10.667S192,443.221,192,437.333v-10.667h42.667v10.667
			c0,5.888,4.779,10.667,10.667,10.667S256,443.221,256,437.333v-10.667h42.667v32c0,5.888,4.779,10.667,10.667,10.667
			S320,464.555,320,458.667v-32h42.667v10.667c0,5.888,4.779,10.667,10.667,10.667c5.888,0,10.667-4.779,10.667-10.667v-10.667
			h42.667v10.667c0,5.888,4.779,10.667,10.667,10.667c5.888,0,10.667-4.779,10.667-10.667V416
			C448,410.112,443.221,405.333,437.333,405.333z"/>
	</g>
</g>
<g>
	<g>
		<path d="M181.333,64H160c-5.888,0-10.667,4.779-10.667,10.667S154.112,85.333,160,85.333h21.333
			c5.888,0,10.667-4.779,10.667-10.667S187.221,64,181.333,64z"/>
	</g>
</g>
<g>
	<g>
		<g>
			<path d="M275.2,64h-46.933c-5.888,0-10.667,4.779-10.667,10.667s4.779,10.667,10.667,10.667H275.2
				c5.909,0,10.667-4.779,10.667-10.667S281.088,64,275.2,64z"/>
			<path d="M369.067,64h-46.912c-5.888,0-10.667,4.779-10.667,10.667s4.779,10.667,10.667,10.667h46.912
				c5.888,0,10.667-4.779,10.667-10.667S374.955,64,369.067,64z"/>
		</g>
	</g>
</g>
<g>
	<g>
		<path d="M437.333,64H416c-5.888,0-10.667,4.779-10.667,10.667S410.112,85.333,416,85.333h10.667V96
			c0,5.888,4.779,10.667,10.667,10.667c5.888,0,10.667-4.779,10.667-10.667V74.667C448,68.779,443.221,64,437.333,64z"/>
	</g>
</g>
<g>
	<g>
		<g>
			<path d="M437.333,268.203c-5.888,0-10.667,4.779-10.667,10.667v36.565c0,5.888,4.779,10.667,10.667,10.667
				c5.888,0,10.667-4.779,10.667-10.667v-36.565C448,272.981,443.221,268.203,437.333,268.203z"/>
			<path d="M437.333,195.051c-5.888,0-10.667,4.779-10.667,10.667v36.565c0,5.888,4.779,10.667,10.667,10.667
				c5.888,0,10.667-4.757,10.667-10.667v-36.565C448,199.829,443.221,195.051,437.333,195.051z"/>
			<path d="M437.333,121.899c-5.888,0-10.667,4.779-10.667,10.667v36.587c0,5.888,4.779,10.667,10.667,10.667
				c5.888,0,10.667-4.779,10.667-10.688v-36.565C448,126.677,443.221,121.899,437.333,121.899z"/>
		</g>
	</g>
</g>
<g>
	<g>
		<path d="M437.333,341.333c-5.888,0-10.667,4.779-10.667,10.667v21.333c0,5.888,4.779,10.667,10.667,10.667
			c5.888,0,10.667-4.779,10.667-10.667V352C448,346.112,443.221,341.333,437.333,341.333z"/>
	</g>
</g>
<g>
	<g>
		<path d="M309.333,192H288c-5.888,0-10.667,4.779-10.667,10.667s4.779,10.667,10.667,10.667h10.667V224
			c0,5.888,4.779,10.667,10.667,10.667S320,229.888,320,224v-21.333C320,196.779,315.221,192,309.333,192z"/>
	</g>
</g>
<g>
	<g>
		<path d="M259.563,192h-28.437c-5.888,0-10.667,4.779-10.667,10.667s4.779,10.667,10.667,10.667h28.437
			c5.888,0,10.667-4.779,10.667-10.667S265.451,192,259.563,192z"/>
	</g>
</g>
<g>
	<g>
		<path d="M202.667,192h-21.333c-5.888,0-10.667,4.779-10.667,10.667V224c0,5.888,4.779,10.667,10.667,10.667S192,229.888,192,224
			v-10.667h10.667c5.888,0,10.667-4.779,10.667-10.667S208.555,192,202.667,192z"/>
	</g>
</g>
<g>
	<g>
		<path d="M181.333,241.792c-5.888,0-10.667,4.779-10.667,10.667v28.437c0,5.888,4.779,10.667,10.667,10.667
			S192,286.784,192,280.896v-28.437C192,246.571,187.221,241.792,181.333,241.792z"/>
	</g>
</g>
<g>
	<g>
		<path d="M202.667,320H192v-10.667c0-5.888-4.779-10.667-10.667-10.667s-10.667,4.779-10.667,10.667v21.333
			c0,5.888,4.779,10.667,10.667,10.667h21.333c5.888,0,10.667-4.779,10.667-10.667S208.555,320,202.667,320z"/>
	</g>
</g>
<g>
	<g>
		<path d="M259.541,320h-28.437c-5.888,0-10.667,4.779-10.667,10.667s4.779,10.667,10.667,10.667h28.437
			c5.888,0,10.667-4.779,10.667-10.667S265.429,320,259.541,320z"/>
	</g>
</g>
<g>
	<g>
		<path d="M309.333,298.667c-5.888,0-10.667,4.779-10.667,10.667V320H288c-5.888,0-10.667,4.779-10.667,10.667
			s4.779,10.667,10.667,10.667h21.333c5.888,0,10.667-4.779,10.667-10.667v-21.333C320,303.445,315.221,298.667,309.333,298.667z"/>
	</g>
</g>
<g>
	<g>
		<path d="M309.333,241.792c-5.888,0-10.667,4.779-10.667,10.667v28.437c0,5.888,4.779,10.667,10.667,10.667
			S320,286.784,320,280.896v-28.437C320,246.571,315.221,241.792,309.333,241.792z"/>
	</g>
</g>
<g>
</g>
<g>
</g>
<g>
</g>
<g>
</g>
<g>
</g>
<g>
</g>
<g>
</g>
<g>
</g>
<g>
</g>
<g>
</g>
<g>
</g>
<g>
</g>
<g>
</g>
<g>
</g>
<g>
</g>
</svg>
