<?xml version="1.0" encoding="iso-8859-1"?>
<!-- Generator: Adobe Illustrator 19.0.0, SVG Export Plug-In . SVG Version: 6.00 Build 0)  -->
<svg xmlns="http://www.w3.org/2000/svg" xmlns:xlink="http://www.w3.org/1999/xlink" version="1.1" id="Capa_1" x="0px" y="0px" viewBox="0 0 512 512" style="enable-background:new 0 0 512 512;" xml:space="preserve" width="512px" height="512px">
<g>
	<g>
		<path d="M367.161,101.814c-27.122-19.765-61.934-30.338-103.557-31.477V7.604C263.604,3.405,260.2,0,256,0    c-4.199,0-7.604,3.405-7.604,7.604v62.738c-48.974,1.33-88.267,15.604-116.865,42.501    c-34.367,32.324-51.792,81.873-51.792,147.273c0,28.352,3.259,56.177,9.686,82.704c0.844,3.48,3.955,5.815,7.384,5.815    c0.593,0,1.195-0.07,1.797-0.216c4.082-0.988,6.589-5.099,5.6-9.18c-6.144-25.356-9.259-51.977-9.259-79.123    c0-139.423,81.678-172.462,153.449-174.564v21.059c-15.943,3.492-27.916,17.716-27.916,34.692v93.052    c0,16.975,11.973,31.2,27.916,34.691v28.118c0,4.199,3.405,7.604,7.604,7.604c4.2,0,7.604-3.405,7.604-7.604v-28.118    c15.943-3.492,27.916-17.716,27.916-34.691v-93.052c0-16.975-11.973-31.2-27.916-34.692V85.548    c38.304,1.111,70.101,10.702,94.6,28.556c3.394,2.474,8.149,1.728,10.624-1.667C371.301,109.044,370.555,104.287,367.161,101.814z     M276.312,141.302v93.052c0,11.2-9.112,20.312-20.312,20.312c-11.2,0-20.312-9.112-20.312-20.312v-93.052    c0-11.2,9.112-20.312,20.312-20.312C267.2,120.99,276.312,130.102,276.312,141.302z" fill="#FFFFFF"/>
	</g>
</g>
<g>
	<g>
		<path d="M394.879,128.668c-2.582-3.312-7.361-3.904-10.672-1.323c-3.313,2.581-3.905,7.36-1.324,10.672    c22.674,29.092,34.17,70.172,34.17,122.098c0,130.504-72.248,236.677-161.053,236.677c-59.026,0-113.288-47.539-141.612-124.066    c-1.458-3.938-5.834-5.951-9.771-4.491c-3.938,1.458-5.949,5.832-4.491,9.771C130.716,460.656,190.445,512,256,512    c47.623,0,92.199-26.575,125.516-74.832c32.722-47.396,50.745-110.275,50.745-177.053    C432.261,204.721,419.684,160.496,394.879,128.668z" fill="#FFFFFF"/>
	</g>
</g>
<g>
</g>
<g>
</g>
<g>
</g>
<g>
</g>
<g>
</g>
<g>
</g>
<g>
</g>
<g>
</g>
<g>
</g>
<g>
</g>
<g>
</g>
<g>
</g>
<g>
</g>
<g>
</g>
<g>
</g>
</svg>
